<?xml version="1.0" standalone="no"?><svg xmlns="http://www.w3.org/2000/svg" viewBox="0 0 1440 320"><path fill="#C7EEFF" fill-opacity="0.3" d="M0,0L40,5.3C80,11,160,21,240,58.7C320,96,400,160,480,186.7C560,213,640,203,720,176C800,149,880,107,960,101.3C1040,96,1120,128,1200,122.7C1280,117,1360,75,1400,53.3L1440,32L1440,320L1400,320C1360,320,1280,320,1200,320C1120,320,1040,320,960,320C880,320,800,320,720,320C640,320,560,320,480,320C400,320,320,320,240,320C160,320,80,320,40,320L0,320Z"></path></svg>